<!DOCTYPE svg PUBLIC "-//W3C//DTD SVG 1.1//EN" "http://www.w3.org/Graphics/SVG/1.1/DTD/svg11.dtd">

<!-- Uploaded to: SVG Repo, www.svgrepo.com, Transformed by: SVG Repo Mixer Tools -->
<svg fill="#000000" width="800px" height="800px" viewBox="0 0 24 24" id="radio" data-name="Line Color" xmlns="http://www.w3.org/2000/svg" class="icon line-color">

<g id="SVGRepo_bgCarrier" stroke-width="0"/>

<g id="SVGRepo_tracerCarrier" stroke-linecap="round" stroke-linejoin="round"/>

<g id="SVGRepo_iconCarrier">

<path id="secondary" d="M7,15a2,2,0,1,1,2,2A2,2,0,0,1,7,15Zm10-2H15m2,4H15" style="fill: none; stroke: #38d3eaff; stroke-linecap: round; stroke-linejoin: round; stroke-width: 2;"/>

<path id="primary" d="M3,10V20a1,1,0,0,0,1,1H20a1,1,0,0,0,1-1V10a1,1,0,0,0-1-1H4A1,1,0,0,0,3,10Zm9-7L6,9" style="fill: none; stroke: #a476eaff; stroke-linecap: round; stroke-linejoin: round; stroke-width: 2;"/>

</g>

</svg>