<!DOCTYPE svg PUBLIC "-//W3C//DTD SVG 1.1//EN" "http://www.w3.org/Graphics/SVG/1.1/DTD/svg11.dtd">
<!-- Uploaded to: SVG Repo, www.svgrepo.com, Transformed by: SVG Repo Mixer Tools -->
<svg fill="#3b82f680" width="800px" height="800px" viewBox="0 0 256 256" id="Flat" xmlns="http://www.w3.org/2000/svg" stroke="#3b82f680">
<g id="SVGRepo_bgCarrier" stroke-width="0"/>
<g id="SVGRepo_tracerCarrier" stroke-linecap="round" stroke-linejoin="round"/>
<g id="SVGRepo_iconCarrier"> <path d="M80.34375,115.668a7.99983,7.99983,0,1,1,11.3125-11.31445L120,132.6897V40a8,8,0,0,1,16,0v92.6897l28.34375-28.33618a7.99983,7.99983,0,1,1,11.3125,11.31445l-42,41.98926a7.99945,7.99945,0,0,1-11.3125,0ZM216,144a8.00039,8.00039,0,0,0-8,8v56H48V152a8,8,0,0,0-16,0v56a16.01833,16.01833,0,0,0,16,16H208a16.01833,16.01833,0,0,0,16-16V152A8.00039,8.00039,0,0,0,216,144Z"/> </g>
</svg>